<svg width="18" height="18" viewBox="0 0 18 18" fill="none" xmlns="http://www.w3.org/2000/svg">
<path d="M15.7057 4.68373L10.9057 1.3254C9.5974 0.408729 7.58906 0.458729 6.33073 1.43373L2.15573 4.69206C1.3224 5.34206 0.664062 6.6754 0.664062 7.7254V13.4754C0.664062 15.6004 2.38906 17.3337 4.51406 17.3337H13.4974C15.6224 17.3337 17.3474 15.6087 17.3474 13.4837V7.83373C17.3474 6.70873 16.6224 5.3254 15.7057 4.68373ZM9.63073 14.0004C9.63073 14.3421 9.3474 14.6254 9.00573 14.6254C8.66406 14.6254 8.38073 14.3421 8.38073 14.0004V11.5004C8.38073 11.1587 8.66406 10.8754 9.00573 10.8754C9.3474 10.8754 9.63073 11.1587 9.63073 11.5004V14.0004Z" fill="#007BFF"/>
</svg>
